<svg width="262" height="75" viewBox="0 0 262 75" fill="none" xmlns="http://www.w3.org/2000/svg">
<path d="M31.7264 53.2075H32.6561L35.7338 61.313H34.8243L34.0356 59.2589H30.3436L29.5683 61.313H28.6621L31.7264 53.2075ZM30.6591 58.44H33.7335L32.1929 54.3755L30.6591 58.44Z" fill="white"/>
<path d="M36.372 58.5373C36.3625 58.1594 36.4292 57.7834 36.5682 57.4318C36.7071 57.0802 36.9155 56.7601 37.1808 56.4908C37.4461 56.2214 37.7629 56.0082 38.1123 55.8639C38.4618 55.7196 38.8367 55.6472 39.2148 55.6509C39.6076 55.6556 39.9943 55.7485 40.3463 55.9228C40.6984 56.0971 41.0068 56.3483 41.2487 56.6578V53.2075H42.0811V61.313H41.2588V60.4034C41.0166 60.7152 40.7068 60.9678 40.3527 61.1423C39.9986 61.3167 39.6095 61.4084 39.2148 61.4103C38.8384 61.4122 38.4654 61.3389 38.1177 61.1948C37.77 61.0507 37.4545 60.8386 37.1898 60.5711C36.9251 60.3035 36.7164 59.9858 36.5759 59.6366C36.4355 59.2874 36.3662 58.9137 36.372 58.5373ZM41.336 58.5373C41.3241 58.1357 41.1945 57.7464 40.9632 57.4177C40.732 57.0891 40.4093 56.8357 40.0352 56.6889C39.6611 56.5421 39.2522 56.5085 38.8592 56.5922C38.4661 56.6758 38.1064 56.8731 37.8245 57.1595C37.5427 57.4459 37.3512 57.8088 37.2738 58.2031C37.1964 58.5975 37.2366 59.0058 37.3894 59.3775C37.5421 59.7491 37.8007 60.0677 38.133 60.2937C38.4653 60.5197 38.8566 60.643 39.2584 60.6484C39.5342 60.6489 39.8073 60.5944 40.0618 60.4881C40.3163 60.3817 40.547 60.2257 40.7405 60.0291C40.9339 59.8326 41.0862 59.5994 41.1885 59.3432C41.2907 59.0871 41.3409 58.8131 41.336 58.5373Z" fill="white"/>
<path d="M43.6309 55.7616H44.4733V56.5167C44.6746 56.2361 44.9427 56.01 45.2532 55.8588C45.5638 55.7077 45.9071 55.6362 46.2521 55.6508C46.6567 55.6216 47.0608 55.7139 47.4124 55.9161C47.7641 56.1182 48.0473 56.4209 48.2256 56.7852C48.4223 56.4273 48.715 56.1314 49.0708 55.931C49.4267 55.7305 49.8314 55.6335 50.2394 55.6508C51.8404 55.6508 52.7164 56.6275 52.7164 58.0506V61.3129H51.8504V57.9935C51.8605 57.7799 51.8252 57.5666 51.7467 57.3677C51.6682 57.1688 51.5483 56.9889 51.3951 56.8397C51.2419 56.6906 51.0587 56.5757 50.8577 56.5027C50.6568 56.4297 50.4426 56.4001 50.2294 56.416C50.0087 56.407 49.7886 56.4446 49.5835 56.5264C49.3783 56.6082 49.1928 56.7323 49.0388 56.8907C48.8849 57.049 48.7661 57.2381 48.6902 57.4454C48.6142 57.6528 48.5829 57.8739 48.5982 58.0942V61.323H47.7423V57.8928C47.7492 57.6904 47.7131 57.4887 47.6364 57.3013C47.5597 57.1138 47.4441 56.9447 47.2973 56.8052C47.1504 56.6656 46.9757 56.5588 46.7845 56.4917C46.5934 56.4246 46.3902 56.3988 46.1884 56.416C45.2117 56.416 44.4901 57.0873 44.4901 58.1848V61.3129H43.6342L43.6309 55.7616Z" fill="white"/>
<path d="M54.2617 53.2075H55.1276V54.7951H54.2617V53.2075ZM54.2617 55.7617H55.1276V61.313H54.2617V55.7617Z" fill="white"/>
<path d="M56.6605 55.7614H57.5029V56.5837C57.7164 56.2844 58.0007 56.0425 58.3304 55.8797C58.6601 55.7169 59.025 55.6383 59.3925 55.6507C60.8793 55.6507 61.8023 56.6274 61.8023 58.2283V61.3128H60.9364V58.2283C60.9364 57.151 60.3792 56.4294 59.2582 56.4294C59.0232 56.4288 58.7904 56.4756 58.5738 56.567C58.3572 56.6584 58.1613 56.7926 57.9977 56.9615C57.8342 57.1304 57.7063 57.3305 57.6219 57.5499C57.5375 57.7693 57.4981 58.0034 57.5062 58.2384V61.3128H56.6504L56.6605 55.7614Z" fill="white"/>
<path d="M63.3262 53.2075H64.1921V54.7951H63.3262V53.2075ZM63.3262 55.7617H64.1921V61.313H63.3262V55.7617Z" fill="white"/>
<path d="M65.2461 60.3598L65.9174 59.806C66.111 60.0704 66.3634 60.2861 66.6546 60.4364C66.9458 60.5866 67.2679 60.6673 67.5955 60.672C68.4279 60.672 68.8474 60.2256 68.8474 59.7154C68.8474 59.1281 68.1157 59.0173 67.3505 58.8394C66.4611 58.628 65.5079 58.3393 65.5079 57.2519C65.5079 56.4296 66.2832 55.6409 67.5217 55.6409C67.9134 55.6272 68.3037 55.6963 68.6669 55.8438C69.0301 55.9913 69.3581 56.2138 69.6294 56.4967L68.9984 57.027C68.8157 56.8159 68.5885 56.6478 68.3332 56.5347C68.0779 56.4215 67.8008 56.3662 67.5217 56.3725C66.7531 56.3725 66.3436 56.7719 66.3436 57.2385C66.3436 57.8057 67.0417 57.9399 67.7969 58.1178C68.6964 58.3259 69.6865 58.6045 69.6865 59.7154C69.6865 60.4269 69.0991 61.4238 67.5552 61.4238C67.1152 61.431 66.6791 61.3391 66.2794 61.155C65.8797 60.9708 65.5265 60.699 65.2461 60.3598Z" fill="white"/>
<path d="M70.5723 55.7616H71.5288V54.4527L72.3947 53.9761V55.7616H73.7037V56.5403H72.3947V59.1851C72.3947 60.3195 72.6062 60.5074 73.7037 60.5074V61.3163H73.5829C71.9618 61.3163 71.5288 60.8531 71.5288 59.1985V56.5436H70.5723V55.7616Z" fill="white"/>
<path d="M74.8594 55.7616H75.7152V56.5604C75.8751 56.299 76.1035 56.0863 76.3757 55.9455C76.6479 55.8047 76.9534 55.7411 77.2591 55.7616H77.9304V56.5604H77.2591C76.1381 56.5604 75.7253 57.1511 75.7253 58.4399V61.3129H74.8594V55.7616Z" fill="white"/>
<path d="M78.5712 58.5374C78.5617 58.1595 78.6284 57.7835 78.7674 57.4319C78.9063 57.0803 79.1147 56.7602 79.38 56.4909C79.6453 56.2215 79.9621 56.0083 80.3116 55.864C80.661 55.7197 81.0359 55.6473 81.414 55.651C81.8082 55.6559 82.1963 55.7488 82.55 55.9231C82.9036 56.0973 83.2139 56.3483 83.458 56.6579V55.7618H84.3105V61.3131H83.458V60.4035C83.2155 60.7149 82.9056 60.9673 82.5516 61.1417C82.1976 61.3161 81.8086 61.408 81.414 61.4104C81.0376 61.4123 80.6646 61.339 80.3169 61.1949C79.9692 61.0508 79.6538 60.8387 79.389 60.5712C79.1243 60.3036 78.9156 59.9859 78.7752 59.6367C78.6347 59.2875 78.5654 58.9138 78.5712 58.5374ZM83.5352 58.5374C83.5233 58.1358 83.3937 57.7465 83.1624 57.4179C82.9312 57.0892 82.6085 56.8358 82.2344 56.689C81.8604 56.5423 81.4514 56.5086 81.0584 56.5923C80.6654 56.6759 80.3056 56.8732 80.0237 57.1596C79.7419 57.446 79.5504 57.8089 79.473 58.2033C79.3957 58.5976 79.4359 59.0059 79.5886 59.3776C79.7414 59.7492 79.9999 60.0678 80.3322 60.2938C80.6645 60.5198 81.0558 60.6431 81.4576 60.6486C81.7334 60.649 82.0066 60.5945 82.261 60.4882C82.5155 60.3818 82.7462 60.2258 82.9397 60.0292C83.1331 59.8327 83.2855 59.5995 83.3877 59.3433C83.4899 59.0872 83.5401 58.8132 83.5352 58.5374Z" fill="white"/>
<path d="M85.5946 58.5373C85.5852 58.1594 85.6519 57.7834 85.7908 57.4318C85.9298 57.0802 86.1381 56.7601 86.4034 56.4908C86.6687 56.2214 86.9855 56.0082 87.335 55.8639C87.6844 55.7196 88.0594 55.6472 88.4374 55.6509C88.8298 55.6554 89.2161 55.7482 89.5676 55.9226C89.9192 56.0969 90.2269 56.3482 90.468 56.6578V53.2075H91.3003V61.313H90.4814V60.4034C90.2389 60.7148 89.9291 60.9672 89.575 61.1416C89.221 61.316 88.8321 61.4079 88.4374 61.4103C88.061 61.4122 87.6881 61.3389 87.3404 61.1948C86.9927 61.0507 86.6772 60.8386 86.4125 60.5711C86.1477 60.3035 85.939 59.9858 85.7986 59.6366C85.6582 59.2874 85.5888 58.9137 85.5946 58.5373ZM90.5586 58.5373C90.5467 58.1357 90.4171 57.7464 90.1859 57.4177C89.9546 57.0891 89.6319 56.8357 89.2578 56.6889C88.8838 56.5421 88.4748 56.5085 88.0818 56.5922C87.6888 56.6758 87.329 56.8731 87.0472 57.1595C86.7653 57.4459 86.5738 57.8088 86.4965 58.2031C86.4191 58.5975 86.4593 59.0058 86.612 59.3775C86.7648 59.7491 87.0234 60.0677 87.3556 60.2937C87.6879 60.5197 88.0793 60.643 88.4811 60.6484C88.7569 60.6489 89.03 60.5944 89.2845 60.4881C89.539 60.3817 89.7697 60.2257 89.9631 60.0291C90.1566 59.8326 90.3089 59.5994 90.4111 59.3432C90.5134 59.0871 90.5635 58.8131 90.5586 58.5373Z" fill="white"/>
<path d="M92.5862 58.5374C92.5868 57.9671 92.7567 57.4097 93.0742 56.9359C93.3917 56.4621 93.8426 56.0931 94.3698 55.8756C94.8971 55.6581 95.477 55.6019 96.0362 55.714C96.5954 55.8262 97.1088 56.1017 97.5114 56.5057C97.914 56.9097 98.1878 57.4241 98.298 57.9837C98.4082 58.5433 98.3499 59.123 98.1306 59.6495C97.9113 60.176 97.5407 60.6256 97.0658 60.9415C96.5908 61.2573 96.0329 61.4252 95.4625 61.4238C95.083 61.4274 94.7065 61.3552 94.3552 61.2113C94.0039 61.0674 93.685 60.8547 93.417 60.5858C93.1491 60.317 92.9375 59.9972 92.7949 59.6455C92.6522 59.2937 92.5812 58.917 92.5862 58.5374ZM97.483 58.5374C97.464 58.1438 97.3299 57.7645 97.0974 57.4464C96.8648 57.1283 96.5441 56.8853 96.1748 56.7477C95.8056 56.6101 95.4041 56.5839 95.0201 56.6722C94.6361 56.7606 94.2864 56.9597 94.0144 57.2448C93.7425 57.5299 93.5601 57.8886 93.49 58.2763C93.4198 58.6641 93.465 59.0639 93.6199 59.4262C93.7747 59.7885 94.0325 60.0975 94.3612 60.3147C94.6899 60.532 95.0752 60.6481 95.4692 60.6485C95.7404 60.6433 96.0079 60.5844 96.2563 60.4753C96.5046 60.3662 96.7288 60.2089 96.9161 60.0126C97.1033 59.8163 97.2498 59.5849 97.3471 59.3317C97.4444 59.0785 97.4906 58.8086 97.483 58.5374Z" fill="white"/>
<path d="M99.6348 55.7616H100.487V56.5604C100.647 56.299 100.876 56.0863 101.148 55.9455C101.42 55.8047 101.725 55.7411 102.031 55.7616H102.719V56.5604H102.031C100.91 56.5604 100.501 57.1511 100.501 58.4399V61.3129H99.6348V55.7616Z" fill="white"/>
<path d="M103.345 58.5374C103.335 58.1595 103.402 57.7835 103.541 57.4319C103.68 57.0803 103.888 56.7602 104.153 56.4909C104.419 56.2215 104.736 56.0083 105.085 55.864C105.434 55.7197 105.809 55.6473 106.187 55.651C106.582 55.6557 106.97 55.7485 107.324 55.9227C107.677 56.097 107.987 56.3482 108.231 56.6579V55.7618H109.087V61.3131H108.231V60.4035C107.989 60.7153 107.679 60.9679 107.325 61.1424C106.971 61.3168 106.582 61.4085 106.187 61.4104C105.811 61.4123 105.438 61.339 105.09 61.1949C104.743 61.0508 104.427 60.8387 104.162 60.5712C103.898 60.3036 103.689 59.9859 103.549 59.6367C103.408 59.2875 103.339 58.9138 103.345 58.5374ZM108.309 58.5374C108.297 58.1358 108.167 57.7465 107.936 57.4179C107.705 57.0892 107.382 56.8358 107.008 56.689C106.634 56.5423 106.225 56.5086 105.832 56.5923C105.439 56.6759 105.079 56.8732 104.797 57.1596C104.515 57.446 104.324 57.8089 104.246 58.2033C104.169 58.5976 104.209 59.0059 104.362 59.3776C104.515 59.7492 104.773 60.0678 105.106 60.2938C105.438 60.5198 105.829 60.6431 106.231 60.6486C106.507 60.649 106.78 60.5945 107.034 60.4882C107.289 60.3818 107.52 60.2258 107.713 60.0292C107.907 59.8327 108.059 59.5995 108.161 59.3433C108.263 59.0872 108.314 58.8132 108.309 58.5374Z" fill="white"/>
<path d="M113.138 58.5373C113.128 58.1594 113.195 57.7834 113.334 57.4318C113.473 57.0802 113.681 56.7601 113.946 56.4908C114.212 56.2214 114.529 56.0082 114.878 55.8639C115.227 55.7196 115.602 55.6472 115.98 55.6509C116.373 55.6554 116.759 55.7482 117.111 55.9226C117.462 56.0969 117.77 56.3482 118.011 56.6578V53.2075H118.843V61.313H118.024V60.4034C117.782 60.7148 117.472 60.9672 117.118 61.1416C116.764 61.316 116.375 61.4079 115.98 61.4103C115.604 61.4122 115.231 61.3389 114.883 61.1948C114.536 61.0507 114.22 60.8386 113.955 60.5711C113.691 60.3035 113.482 59.9858 113.342 59.6366C113.201 59.2874 113.132 58.9137 113.138 58.5373ZM118.102 58.5373C118.09 58.1357 117.96 57.7464 117.729 57.4177C117.498 57.0891 117.175 56.8357 116.801 56.6889C116.427 56.5421 116.018 56.5085 115.625 56.5922C115.232 56.6758 114.872 56.8731 114.59 57.1595C114.308 57.4459 114.117 57.8088 114.039 58.2031C113.962 58.5975 114.002 59.0058 114.155 59.3775C114.308 59.7491 114.566 60.0677 114.899 60.2937C115.231 60.5197 115.622 60.643 116.024 60.6484C116.3 60.6489 116.573 60.5944 116.827 60.4881C117.082 60.3817 117.313 60.2257 117.506 60.0291C117.7 59.8326 117.852 59.5994 117.954 59.3432C118.056 59.0871 118.106 58.8131 118.102 58.5373Z" fill="white"/>
<path d="M120.129 58.5841C120.115 58.1999 120.179 57.8168 120.318 57.4583C120.457 57.0997 120.667 56.7732 120.936 56.4987C121.205 56.2242 121.528 56.0074 121.883 55.8616C122.239 55.7158 122.621 55.644 123.005 55.6507C123.38 55.6324 123.754 55.6919 124.104 55.8255C124.454 55.9592 124.773 56.1639 125.04 56.427C125.307 56.69 125.517 57.0056 125.656 57.3538C125.795 57.7019 125.861 58.0752 125.848 58.4499V58.8157H120.961C121.017 59.262 121.215 59.6787 121.525 60.0048C121.835 60.3309 122.241 60.5493 122.684 60.628C123.126 60.7068 123.583 60.6418 123.986 60.4425C124.39 60.2432 124.719 59.9202 124.925 59.5205L125.67 59.8897C125.43 60.3734 125.054 60.7767 124.589 61.0503C124.123 61.3238 123.588 61.4559 123.049 61.4303C121.283 61.4235 120.129 60.2153 120.129 58.5841ZM121.005 58.027H124.969C124.814 57.0201 124.083 56.4159 123.005 56.4159C122.538 56.4147 122.084 56.574 121.72 56.8673C121.356 57.1605 121.103 57.5699 121.005 58.027Z" fill="white"/>
<path d="M129.967 53.2075H134.552V54.0298H130.833V56.8357H134.552V57.658H130.833V61.3096H129.967V53.2075Z" fill="white"/>
<path d="M135.561 58.5374C135.561 57.9671 135.731 57.4097 136.049 56.9359C136.366 56.4621 136.817 56.0931 137.344 55.8756C137.872 55.6581 138.452 55.6019 139.011 55.714C139.57 55.8262 140.083 56.1017 140.486 56.5057C140.889 56.9097 141.162 57.4241 141.273 57.9837C141.383 58.5433 141.324 59.123 141.105 59.6495C140.886 60.176 140.515 60.6256 140.04 60.9415C139.565 61.2573 139.007 61.4252 138.437 61.4238C138.058 61.427 137.681 61.3544 137.33 61.2103C136.979 61.0663 136.66 60.8536 136.393 60.5848C136.125 60.316 135.913 59.9965 135.77 59.6449C135.628 59.2934 135.556 58.9169 135.561 58.5374ZM140.458 58.5374C140.439 58.1438 140.304 57.7645 140.072 57.4464C139.839 57.1283 139.519 56.8853 139.149 56.7477C138.78 56.6101 138.379 56.5839 137.995 56.6722C137.611 56.7606 137.261 56.9597 136.989 57.2448C136.717 57.5299 136.535 57.8886 136.465 58.2763C136.394 58.6641 136.44 59.0639 136.594 59.4262C136.749 59.7885 137.007 60.0975 137.336 60.3147C137.665 60.532 138.05 60.6481 138.444 60.6485C138.715 60.6433 138.982 60.5844 139.231 60.4753C139.479 60.3662 139.703 60.2089 139.891 60.0126C140.078 59.8163 140.224 59.5849 140.322 59.3317C140.419 59.0785 140.465 58.8086 140.458 58.5374Z" fill="white"/>
<path d="M142.61 55.7614H143.452V56.5837C143.666 56.2844 143.95 56.0425 144.28 55.8797C144.609 55.7169 144.974 55.6383 145.342 55.6507C146.829 55.6507 147.752 56.6274 147.752 58.2283V61.3128H146.886V58.2283C146.886 57.151 146.328 56.4294 145.207 56.4294C144.972 56.4288 144.74 56.4756 144.523 56.567C144.306 56.6584 144.11 56.7926 143.947 56.9615C143.783 57.1304 143.656 57.3305 143.571 57.5499C143.487 57.7693 143.447 58.0034 143.455 58.2384V61.3128H142.6L142.61 55.7614Z" fill="white"/>
<path d="M148.975 58.5373C148.966 58.1594 149.033 57.7834 149.172 57.4318C149.311 57.0802 149.519 56.7601 149.784 56.4908C150.05 56.2214 150.366 56.0082 150.716 55.8639C151.065 55.7196 151.44 55.6472 151.818 55.6509C152.211 55.6556 152.597 55.7486 152.948 55.9229C153.3 56.0972 153.608 56.3484 153.849 56.6578V53.2075H154.681V61.313H153.859V60.4034C153.617 60.7147 153.308 60.9671 152.954 61.1415C152.601 61.3159 152.212 61.4079 151.818 61.4103C151.442 61.4122 151.069 61.3389 150.721 61.1948C150.374 61.0507 150.058 60.8386 149.793 60.5711C149.529 60.3035 149.32 59.9858 149.179 59.6366C149.039 59.2874 148.97 58.9137 148.975 58.5373ZM153.939 58.5373C153.928 58.1357 153.798 57.7464 153.567 57.4177C153.335 57.0891 153.013 56.8357 152.639 56.6889C152.265 56.5421 151.856 56.5085 151.463 56.5922C151.07 56.6758 150.71 56.8731 150.428 57.1595C150.146 57.4459 149.955 57.8088 149.877 58.2031C149.8 58.5975 149.84 59.0058 149.993 59.3775C150.146 59.7491 150.404 60.0677 150.737 60.2937C151.069 60.5197 151.46 60.643 151.862 60.6484C152.138 60.6489 152.411 60.5944 152.665 60.4881C152.92 60.3817 153.151 60.2257 153.344 60.0291C153.537 59.8326 153.69 59.5994 153.792 59.3432C153.894 59.0871 153.944 58.8131 153.939 58.5373Z" fill="white"/>
<path d="M155.967 58.5374C155.968 57.9671 156.138 57.4097 156.455 56.9359C156.773 56.4621 157.223 56.0931 157.751 55.8756C158.278 55.6581 158.858 55.6019 159.417 55.714C159.976 55.8262 160.49 56.1017 160.892 56.5057C161.295 56.9097 161.569 57.4241 161.679 57.9837C161.789 58.5433 161.731 59.123 161.511 59.6495C161.292 60.176 160.922 60.6256 160.447 60.9415C159.972 61.2573 159.414 61.4252 158.843 61.4238C158.464 61.4274 158.087 61.3552 157.736 61.2113C157.385 61.0674 157.066 60.8547 156.798 60.5858C156.53 60.317 156.318 59.9972 156.176 59.6455C156.033 59.2937 155.962 58.917 155.967 58.5374ZM160.864 58.5374C160.845 58.1438 160.711 57.7645 160.478 57.4464C160.246 57.1283 159.925 56.8853 159.556 56.7477C159.186 56.6101 158.785 56.5839 158.401 56.6722C158.017 56.7606 157.667 56.9597 157.395 57.2448C157.123 57.5299 156.941 57.8886 156.871 58.2763C156.801 58.6641 156.846 59.0639 157.001 59.4262C157.156 59.7885 157.413 60.0975 157.742 60.3147C158.071 60.532 158.456 60.6481 158.85 60.6485C159.121 60.6433 159.389 60.5844 159.637 60.4753C159.885 60.3662 160.11 60.2089 160.297 60.0126C160.484 59.8163 160.631 59.5849 160.728 59.3317C160.825 59.0785 160.871 58.8086 160.864 58.5374Z" fill="white"/>
<path d="M162.475 60.3597L163.146 59.8059C163.34 60.0699 163.592 60.2854 163.883 60.4356C164.175 60.5858 164.496 60.6667 164.824 60.6719C165.656 60.6719 166.079 60.2255 166.079 59.7153C166.079 59.128 165.344 59.0172 164.579 58.8393C163.69 58.6279 162.736 58.3392 162.736 57.2518C162.736 56.4295 163.512 55.6408 164.75 55.6408C165.142 55.6275 165.533 55.6968 165.897 55.8442C166.26 55.9917 166.589 56.2139 166.861 56.4966L166.227 57.0269C166.044 56.8158 165.817 56.6477 165.562 56.5346C165.306 56.4214 165.029 56.3661 164.75 56.3724C163.985 56.3724 163.572 56.7718 163.572 57.2384C163.572 57.8056 164.274 57.9398 165.029 58.1177C165.928 58.3258 166.915 58.6044 166.915 59.7153C166.915 60.4269 166.328 61.4237 164.784 61.4237C164.344 61.4307 163.908 61.3387 163.508 61.1545C163.108 60.9704 162.755 60.6988 162.475 60.3597Z" fill="white"/>
<path d="M170.772 58.5373C170.763 58.1597 170.83 57.7839 170.968 57.4326C171.107 57.0812 171.315 56.7613 171.58 56.492C171.845 56.2227 172.161 56.0094 172.51 55.8649C172.859 55.7204 173.234 55.6476 173.612 55.6509C174.005 55.6554 174.391 55.7482 174.744 55.9225C175.096 56.0968 175.404 56.3481 175.646 56.6578V53.2075H176.478V61.313H175.656V60.4034C175.414 60.7152 175.104 60.9678 174.75 61.1423C174.396 61.3167 174.007 61.4084 173.612 61.4103C173.236 61.4122 172.863 61.3389 172.515 61.1947C172.168 61.0506 171.852 60.8385 171.588 60.5709C171.324 60.3033 171.115 59.9856 170.975 59.6364C170.835 59.2872 170.766 58.9135 170.772 58.5373ZM175.733 58.5373C175.72 58.1365 175.59 57.7482 175.359 57.4206C175.128 57.093 174.806 56.8405 174.432 56.6945C174.059 56.5485 173.65 56.5154 173.258 56.5993C172.866 56.6832 172.507 56.8804 172.226 57.1664C171.945 57.4525 171.754 57.8148 171.677 58.2083C171.6 58.6019 171.641 59.0094 171.793 59.3802C171.946 59.7511 172.204 60.069 172.536 60.2944C172.867 60.5199 173.258 60.643 173.659 60.6484C173.934 60.6489 174.207 60.5944 174.462 60.488C174.716 60.3816 174.947 60.2256 175.14 60.0289C175.333 59.8323 175.485 59.5991 175.587 59.343C175.689 59.0868 175.738 58.8129 175.733 58.5373Z" fill="white"/>
<path d="M177.764 58.5844C177.749 58.2001 177.813 57.8168 177.952 57.4581C178.09 57.0993 178.301 56.7726 178.57 56.498C178.839 56.2234 179.162 56.0066 179.518 55.861C179.874 55.7153 180.256 55.6439 180.64 55.651C181.014 55.6332 181.388 55.6931 181.738 55.8269C182.088 55.9607 182.406 56.1656 182.673 56.4286C182.94 56.6916 183.149 57.007 183.288 57.3549C183.427 57.7029 183.492 58.0758 183.48 58.4502V58.816H178.596C178.652 59.2624 178.85 59.679 179.16 60.0051C179.469 60.3312 179.876 60.5496 180.318 60.6284C180.761 60.7071 181.218 60.6421 181.621 60.4428C182.024 60.2436 182.353 59.9205 182.56 59.5208L183.305 59.89C183.064 60.3732 182.688 60.776 182.223 61.0494C181.758 61.3229 181.223 61.4554 180.684 61.4306C178.918 61.4239 177.764 60.2156 177.764 58.5844ZM178.64 58.0273H182.604C182.546 57.5578 182.31 57.1285 181.945 56.8285C181.579 56.5285 181.112 56.3808 180.64 56.4163C180.172 56.4144 179.718 56.5735 179.354 56.8668C178.99 57.1602 178.738 57.5699 178.64 58.0273Z" fill="white"/>
<path d="M187.697 53.2075H188.567V61.313H187.697V53.2075Z" fill="white"/>
<path d="M190.244 55.7614H191.087V56.5837C191.3 56.2844 191.585 56.0425 191.914 55.8797C192.244 55.7169 192.609 55.6383 192.976 55.6507C194.463 55.6507 195.386 56.6274 195.386 58.2283V61.3128H194.52V58.2283C194.52 57.151 193.963 56.4294 192.842 56.4294C192.607 56.4288 192.374 56.4756 192.158 56.567C191.941 56.6584 191.745 56.7926 191.582 56.9615C191.418 57.1304 191.29 57.3305 191.206 57.5499C191.121 57.7693 191.082 58.0034 191.09 58.2384V61.3128H190.234L190.244 55.7614Z" fill="white"/>
<path d="M196.135 55.7617H197.064L198.743 60.1484L200.384 55.7617H201.297L199.142 61.313H198.276L196.135 55.7617Z" fill="white"/>
<path d="M201.797 58.5842C201.783 58.2 201.847 57.8169 201.986 57.4584C202.124 57.0999 202.335 56.7734 202.604 56.4988C202.873 56.2243 203.196 56.0075 203.551 55.8617C203.907 55.7159 204.289 55.6442 204.673 55.6508C206.274 55.6508 207.516 56.7517 207.516 58.45V58.8158H202.639C202.697 59.26 202.895 59.6741 203.205 59.9981C203.514 60.3221 203.919 60.5391 204.36 60.6177C204.801 60.6962 205.255 60.6322 205.657 60.435C206.06 60.2377 206.388 59.9174 206.596 59.5206L207.338 59.8898C207.098 60.3735 206.722 60.7768 206.257 61.0504C205.791 61.324 205.256 61.456 204.717 61.4304C202.951 61.4237 201.797 60.2154 201.797 58.5842ZM202.676 58.0271H206.64C206.582 57.5573 206.345 57.128 205.979 56.828C205.613 56.5281 205.145 56.3806 204.673 56.4161C204.206 56.4143 203.752 56.5735 203.389 56.8669C203.025 57.1603 202.773 57.57 202.676 58.0271Z" fill="white"/>
<path d="M208.803 55.7618H209.659V56.5606C209.818 56.2998 210.046 56.0875 210.318 55.9467C210.589 55.8059 210.894 55.742 211.199 55.7618H211.891V56.5606H211.199C210.078 56.5606 209.669 57.1514 209.669 58.4402V61.3132H208.803V55.7618Z" fill="white"/>
<path d="M212.523 60.3598L213.195 59.806C213.389 60.07 213.641 60.2855 213.932 60.4357C214.223 60.5859 214.545 60.6668 214.873 60.672C215.705 60.672 216.128 60.2256 216.128 59.7154C216.128 59.1281 215.393 59.0173 214.628 58.8394C213.738 58.628 212.785 58.3393 212.785 57.2519C212.785 56.4296 213.561 55.6409 214.799 55.6409C215.191 55.6272 215.581 55.6963 215.944 55.8438C216.307 55.9913 216.635 56.2138 216.907 56.4967L216.276 57.027C216.093 56.8159 215.866 56.6478 215.611 56.5347C215.355 56.4215 215.078 56.3662 214.799 56.3725C214.034 56.3725 213.621 56.7719 213.621 57.2385C213.621 57.8057 214.322 57.9399 215.078 58.1178C215.977 58.3259 216.964 58.6045 216.964 59.7154C216.964 60.4269 216.376 61.4238 214.833 61.4238C214.393 61.431 213.956 61.3391 213.557 61.155C213.157 60.9708 212.804 60.699 212.523 60.3598Z" fill="white"/>
<path d="M218.25 53.2075H219.116V54.7951H218.25V53.2075ZM218.25 55.7617H219.116V61.313H218.25V55.7617Z" fill="white"/>
<path d="M220.399 58.5374C220.399 57.9671 220.569 57.4097 220.887 56.9359C221.204 56.4621 221.655 56.0931 222.182 55.8756C222.71 55.6581 223.29 55.6018 223.849 55.714C224.408 55.8262 224.921 56.1017 225.324 56.5057C225.727 56.9097 226 57.4241 226.11 57.9837C226.221 58.5433 226.162 59.123 225.943 59.6495C225.724 60.176 225.353 60.6256 224.878 60.9414C224.403 61.2573 223.845 61.4252 223.275 61.4238C222.895 61.4274 222.519 61.3552 222.168 61.2113C221.816 61.0674 221.497 60.8547 221.23 60.5858C220.962 60.317 220.75 59.9972 220.607 59.6455C220.465 59.2937 220.394 58.917 220.399 58.5374ZM225.296 58.5374C225.276 58.1438 225.142 57.7645 224.91 57.4464C224.677 57.1282 224.357 56.8853 223.987 56.7477C223.618 56.6101 223.217 56.5839 222.833 56.6722C222.449 56.7606 222.099 56.9596 221.827 57.2448C221.555 57.5299 221.373 57.8886 221.302 58.2763C221.232 58.6641 221.277 59.0639 221.432 59.4262C221.587 59.7885 221.845 60.0975 222.174 60.3147C222.502 60.532 222.888 60.6481 223.282 60.6485C223.553 60.6433 223.82 60.5844 224.069 60.4753C224.317 60.3661 224.541 60.2089 224.729 60.0126C224.916 59.8163 225.062 59.5849 225.16 59.3317C225.257 59.0785 225.303 58.8086 225.296 58.5374ZM224.05 53.3184H225.161L223.55 55.1173H222.751L224.05 53.3184Z" fill="white"/>
<path d="M227.443 55.7615H228.289V56.5837C228.502 56.2845 228.786 56.0426 229.115 55.8797C229.444 55.7169 229.808 55.6382 230.175 55.6507C231.666 55.6507 232.585 56.6274 232.585 58.2283V61.3128H231.719V58.2283C231.719 57.151 231.166 56.4294 230.041 56.4294C229.806 56.4288 229.573 56.4756 229.356 56.567C229.139 56.6584 228.943 56.7925 228.779 56.9613C228.616 57.1301 228.488 57.3302 228.403 57.5496C228.318 57.769 228.278 58.0033 228.286 58.2384V61.3128H227.443V55.7615Z" fill="white"/>
<path d="M26.5347 40.3257H11.3608L9.56857 46.1858H1.26172L11.7569 14.707H26.4911L37.0701 46.1858H28.3706L26.5347 40.3257ZM24.3027 33.1566L18.9327 15.8415L13.5928 33.1566H24.3027Z" fill="#1833E8"/>
<path d="M49.5016 22.467C48.9895 23.0519 48.7227 23.8116 48.7565 24.5882V27.035H55.5362V33.9859H48.7565V46.186H41.2014V33.9859H37.3887V27.035H41.2014V23.9438C41.1657 22.2457 41.5877 20.5693 42.4231 19.0906C43.2076 17.7236 44.3585 16.6029 45.7459 15.8551C47.1847 15.0881 48.7942 14.6979 50.4246 14.7207H55.6335V21.6582H51.606C51.2175 21.6324 50.8281 21.6913 50.4648 21.831C50.1014 21.9707 49.7727 22.1877 49.5016 22.467Z" fill="#1833E8"/>
<path d="M59.1584 21.0877C58.753 20.6978 58.433 20.2281 58.2186 19.7081C58.0043 19.1881 57.9003 18.6293 57.9132 18.067C57.9047 17.5123 58.011 16.9618 58.2253 16.4501C58.4395 15.9384 58.7572 15.4765 59.1584 15.0933C59.5571 14.696 60.032 14.3834 60.5545 14.174C61.077 13.9647 61.6364 13.863 62.1992 13.875C62.7522 13.8657 63.3012 13.9696 63.8126 14.1803C64.3239 14.391 64.7869 14.704 65.1729 15.1C65.569 15.4858 65.8818 15.9488 66.0919 16.4603C66.302 16.9717 66.405 17.5209 66.3946 18.0737C66.4092 18.6323 66.3102 19.1881 66.1036 19.7073C65.8971 20.2265 65.5873 20.6984 65.193 21.0944C64.8058 21.4944 64.3398 21.8098 63.8245 22.0207C63.3092 22.2315 62.7558 22.3333 62.1992 22.3194C61.6354 22.3305 61.0752 22.227 60.5525 22.0153C60.0298 21.8036 59.5556 21.488 59.1584 21.0877ZM58.3495 24.3232H65.9146V46.1861H58.3495V24.3232Z" fill="#1833E8"/>
<path d="M117.792 31.0961C117.85 31.877 117.88 32.8917 117.88 34.1403V46.1861H109.448V34.684C109.48 34.0524 109.409 33.4198 109.237 32.8112C109.072 32.3632 108.766 31.9814 108.364 31.7237C107.925 31.4472 107.413 31.3071 106.894 31.321C106.481 31.3119 106.072 31.3927 105.693 31.5579C105.315 31.7231 104.977 31.9686 104.703 32.2775C104.108 32.9506 103.796 33.8268 103.83 34.7243V46.1861H95.4023V24.6486H103.83V32.8212C104.054 30.1519 104.813 28.0519 106.109 26.5215C107.404 24.991 109.142 24.2246 111.321 24.2224C112.723 24.1707 114.1 24.6059 115.218 25.4542C116.288 26.3314 117.055 27.5233 117.41 28.8608C117.611 29.5914 117.739 30.3402 117.792 31.0961Z" fill="white"/>
<path d="M133.165 32.3951V36.0266C133.154 36.3482 133.21 36.6685 133.328 36.9678C133.446 37.2671 133.624 37.5389 133.852 37.7664C134.079 37.9939 134.351 38.1723 134.65 38.2904C134.95 38.4086 135.27 38.464 135.591 38.4532H139.72V46.1862H133.927C132.286 46.2087 130.669 45.7903 129.245 44.9745C127.874 44.1842 126.736 43.0462 125.945 41.6753C125.126 40.2465 124.708 38.6232 124.734 36.9765V32.3951H120.689V24.6487H124.734V17.8354H133.165V24.6487H139.72V32.3951H133.165Z" fill="white"/>
<path d="M165.298 37.4163H150.698C150.819 37.9066 151.038 38.3674 151.341 38.7711C151.644 39.1748 152.026 39.5131 152.463 39.7657C153.358 40.2916 154.628 40.5545 156.273 40.5545C158.862 40.5392 161.433 40.1225 163.895 39.3193V45.2936C161.273 46.1699 158.527 46.6154 155.762 46.6126C152.981 46.6126 150.576 46.1438 148.546 45.2063C146.636 44.3961 145.015 43.0281 143.895 41.2812C142.775 39.5343 142.209 37.4901 142.27 35.416C142.238 33.382 142.768 31.3787 143.801 29.6263C144.799 27.9489 146.234 26.5742 147.952 25.6491C149.736 24.6874 151.736 24.1965 153.762 24.2227C155.844 24.1943 157.89 24.7627 159.659 25.8606C161.42 26.971 162.847 28.538 163.787 30.3949C164.818 32.4241 165.336 34.6744 165.298 36.9498V37.4163ZM151.443 31.8415C150.859 32.4949 150.523 33.5018 150.436 34.8622H156.904C156.847 33.4727 156.568 32.4591 156.031 31.8214C155.494 31.1837 154.735 30.8615 153.712 30.8615C153.285 30.8481 152.86 30.9289 152.468 31.0983C152.076 31.2677 151.726 31.5215 151.443 31.8415Z" fill="white"/>
<path d="M179.686 27.6125C180.847 25.639 182.408 24.6523 184.368 24.6523V33.9761H181.089C180.621 33.9565 180.154 34.0311 179.715 34.1954C179.276 34.3597 178.875 34.6104 178.535 34.9326C178.203 35.2714 177.946 35.6748 177.778 36.1178C177.609 36.5608 177.535 37.0337 177.558 37.5069V46.1863H169.127V24.6489H177.558V35.2515C177.813 32.1301 178.522 29.5838 179.686 27.6125Z" fill="white"/>
<path d="M211.397 24.6489L205.906 46.1863H190.071L184.879 24.6489H193.773L198.116 44.9109L202.926 24.6489H211.397Z" fill="white"/>
<path d="M231.841 27.0957C234.302 29.0087 235.533 31.7687 235.533 35.3757V46.1863H227.105V40.8666C226.894 42.5177 226.037 44.018 224.722 45.0385C223.347 46.1002 221.649 46.6561 219.912 46.6126C217.724 46.6126 215.964 45.9805 214.633 44.7163C213.302 43.452 212.63 41.7851 212.619 39.7154C212.619 37.6188 213.279 35.9406 214.599 34.6809C215.92 33.4212 217.686 32.7969 219.899 32.8081C221.632 32.7624 223.33 33.3107 224.709 34.3621C225.361 34.8609 225.908 35.4846 226.317 36.1968C226.726 36.909 226.989 37.6955 227.092 38.5104V37.4599C227.092 35.2761 226.446 33.6662 225.155 32.6302C223.864 31.5942 222.074 31.0762 219.785 31.0762C218.783 31.086 217.784 31.1985 216.804 31.4119C215.832 31.6036 214.888 31.9182 213.995 32.3483V25.2866C215.22 24.9202 216.474 24.663 217.744 24.518C219.141 24.3298 220.547 24.2312 221.956 24.2227C226.1 24.2227 229.395 25.1803 231.841 27.0957ZM226.296 41.3566C226.547 41.1635 226.751 40.9152 226.891 40.631C227.031 40.3467 227.104 40.034 227.104 39.717C227.104 39.4001 227.031 39.0874 226.891 38.8031C226.751 38.5188 226.547 38.2706 226.296 38.0775C225.718 37.6481 225.016 37.4162 224.296 37.4162C223.575 37.4162 222.874 37.6481 222.295 38.0775C222.044 38.2706 221.84 38.5188 221.7 38.8031C221.56 39.0874 221.487 39.4001 221.487 39.717C221.487 40.034 221.56 40.3467 221.7 40.631C221.84 40.9152 222.044 41.1635 222.295 41.3566C222.874 41.786 223.575 42.0178 224.296 42.0178C225.016 42.0178 225.718 41.786 226.296 41.3566Z" fill="white"/>
<path d="M239.959 15.1538H248.387V46.1862H239.959V15.1538Z" fill="white"/>
<path d="M251.535 45.2061C251.071 44.7563 250.705 44.2156 250.46 43.6179C250.215 43.0202 250.095 42.3783 250.109 41.7324C250.093 41.0723 250.213 40.4159 250.461 39.8043C250.71 39.1928 251.083 38.6391 251.555 38.178C252.018 37.7145 252.57 37.3495 253.177 37.1049C253.784 36.8603 254.435 36.7413 255.09 36.755C255.733 36.7474 256.37 36.8719 256.963 37.1207C257.556 37.3695 258.092 37.7374 258.537 38.2015C259.007 38.6595 259.379 39.2092 259.628 39.8165C259.877 40.4238 259.999 41.0759 259.987 41.7324C259.997 42.3795 259.873 43.0218 259.624 43.619C259.374 44.2162 259.004 44.7554 258.537 45.2028C258.088 45.6612 257.552 46.024 256.959 46.2691C256.367 46.5143 255.731 46.6368 255.09 46.6292C254.432 46.645 253.777 46.5271 253.166 46.2824C252.555 46.0378 252.001 45.6716 251.535 45.2061Z" fill="#1833E8"/>
<path d="M89.955 13.9185H81.5273V46.186H89.955V13.9185Z" fill="white"/>
</svg>
